<?xml version="1.0" standalone="no"?>
<!DOCTYPE svg PUBLIC "-//W3C//DTD SVG 20010904//EN"
 "http://www.w3.org/TR/2001/REC-SVG-20010904/DTD/svg10.dtd">
<svg version="1.0" xmlns="http://www.w3.org/2000/svg"
 width="500.000000pt" height="500.000000pt" viewBox="0 0 500.000000 500.000000"
 preserveAspectRatio="xMidYMid meet">

<g transform="translate(0.000000,500.000000) scale(0.100000,-0.100000)"
fill="#000000" stroke="none">
<path d="M1925 4743 c-284 -41 -523 -195 -670 -434 -100 -162 -140 -321 -132
-523 9 -230 54 -339 260 -633 l135 -191 -32 -39 c-18 -21 -38 -48 -45 -61 -16
-30 -6 -74 22 -100 21 -19 37 -20 317 -25 333 -5 360 -9 494 -80 95 -51 195
-146 249 -238 57 -98 79 -177 85 -305 6 -160 -24 -264 -122 -414 -47 -71 -46
-99 6 -186 58 -95 105 -208 135 -322 23 -87 26 -119 29 -305 3 -203 4 -210 28
-252 18 -30 40 -50 71 -65 44 -21 52 -22 367 -18 297 4 330 6 407 27 178 49
328 139 459 275 188 196 281 415 302 714 35 480 -116 961 -413 1316 l-66 80
67 95 c36 53 95 137 130 186 80 114 145 246 174 355 31 119 31 338 -1 455 -88
327 -336 574 -668 667 -77 22 -89 22 -818 24 -407 1 -753 0 -770 -3z m1510
-467 c114 -43 211 -126 264 -226 77 -145 79 -295 6 -439 -18 -36 -195 -300
-242 -360 -1 -2 -53 21 -115 52 -258 129 -516 180 -791 158 -223 -17 -424 -75
-609 -173 -43 -23 -80 -40 -82 -37 -35 36 -251 365 -268 407 -33 82 -33 252 0
334 63 156 192 264 357 298 22 4 353 7 735 6 655 -1 698 -2 745 -20z"/>
<path d="M1190 2603 c-59 -10 -153 -47 -207 -82 -210 -136 -291 -416 -188
-646 12 -27 57 -99 100 -160 49 -69 74 -113 69 -121 -5 -6 -33 -42 -62 -80
-70 -92 -137 -232 -169 -351 -24 -87 -27 -117 -27 -263 0 -155 2 -170 28 -245
15 -44 43 -105 62 -136 44 -73 143 -165 220 -206 115 -61 148 -64 628 -61 421
3 432 4 496 26 184 66 319 219 370 418 25 95 27 273 5 397 -28 163 -111 342
-213 465 l-41 48 71 100 c80 114 109 167 132 243 23 77 21 213 -4 293 -39 127
-143 249 -263 310 -107 53 -152 58 -587 56 -217 0 -406 -3 -420 -5z m899 -280
c55 -27 105 -84 128 -146 20 -54 15 -136 -11 -192 -27 -58 -135 -215 -148
-215 -5 0 -35 13 -68 30 -85 43 -212 77 -315 85 -149 11 -334 -29 -462 -100
l-41 -23 -73 105 c-99 144 -114 199 -83 303 19 63 98 149 154 167 23 7 178 11
451 12 l415 1 53 -27z"/>
</g>
</svg>
